<?xml version="1.0" encoding="UTF-8"?>
<svg xmlns="http://www.w3.org/2000/svg" xmlns:xlink="http://www.w3.org/1999/xlink" width="90px" height="90px" viewBox="0 0 90 90" version="1.1">
<g id="surface1">
<path style=" stroke:none;fill-rule:evenodd;fill:rgb(0%,52.156863%,100%);fill-opacity:1;" d="M 12.054688 16.792969 C 12.054688 13.683594 14.570312 11.167969 17.679688 11.167969 L 36.964844 11.167969 C 40.070312 11.167969 42.589844 13.683594 42.589844 16.792969 L 42.589844 40.898438 C 42.589844 44.003906 40.070312 46.523438 36.964844 46.523438 L 17.679688 46.523438 C 14.570312 46.523438 12.054688 44.003906 12.054688 40.898438 Z M 17.679688 15.988281 C 17.234375 15.988281 16.875 16.347656 16.875 16.792969 L 16.875 40.898438 C 16.875 41.34375 17.234375 41.703125 17.679688 41.703125 L 36.964844 41.703125 C 37.40625 41.703125 37.769531 41.34375 37.769531 40.898438 L 37.769531 16.792969 C 37.769531 16.347656 37.40625 15.988281 36.964844 15.988281 Z M 47.410156 16.792969 C 47.410156 13.683594 49.929688 11.167969 53.035156 11.167969 L 72.320312 11.167969 C 75.429688 11.167969 77.945312 13.683594 77.945312 16.792969 L 77.945312 33.082031 C 77.945312 36.1875 75.429688 38.707031 72.320312 38.707031 L 53.035156 38.707031 C 49.929688 38.707031 47.410156 36.1875 47.410156 33.082031 Z M 53.035156 15.988281 C 52.59375 15.988281 52.230469 16.347656 52.230469 16.792969 L 52.230469 33.082031 C 52.230469 33.523438 52.59375 33.886719 53.035156 33.886719 L 72.320312 33.886719 C 72.765625 33.886719 73.125 33.523438 73.125 33.082031 L 73.125 16.792969 C 73.125 16.347656 72.765625 15.988281 72.320312 15.988281 Z M 53.035156 15.988281 "/>
<path style=" stroke:none;fill-rule:evenodd;fill:rgb(0%,52.156863%,100%);fill-opacity:1;" d="M 42.589844 73.042969 C 42.589844 76.148438 40.070312 78.667969 36.964844 78.667969 L 17.679688 78.667969 C 14.570312 78.667969 12.054688 76.148438 12.054688 73.042969 L 12.054688 56.75 C 12.054688 53.644531 14.570312 51.125 17.679688 51.125 L 36.964844 51.125 C 40.070312 51.125 42.589844 53.644531 42.589844 56.75 Z M 36.964844 73.84375 C 37.40625 73.84375 37.769531 73.484375 37.769531 73.042969 L 37.769531 56.75 C 37.769531 56.308594 37.40625 55.949219 36.964844 55.949219 L 17.679688 55.949219 C 17.234375 55.949219 16.875 56.308594 16.875 56.75 L 16.875 73.042969 C 16.875 73.484375 17.234375 73.84375 17.679688 73.84375 Z M 36.964844 73.84375 "/>
<path style=" stroke:none;fill-rule:evenodd;fill:rgb(0%,52.156863%,100%);fill-opacity:1;" d="M 49.320312 66.238281 C 48.128906 66.238281 47.160156 67.207031 47.160156 68.398438 L 47.160156 76.679688 C 47.160156 77.871094 48.128906 78.839844 49.320312 78.839844 L 57.601562 78.839844 C 58.792969 78.839844 59.761719 77.871094 59.761719 76.679688 L 59.761719 73.800781 L 64.441406 73.800781 L 64.441406 76.679688 C 64.441406 77.871094 65.40625 78.839844 66.601562 78.839844 L 74.878906 78.839844 C 76.074219 78.839844 77.039062 77.871094 77.039062 76.679688 L 77.039062 68.398438 C 77.039062 67.207031 76.074219 66.238281 74.878906 66.238281 L 72.359375 66.238281 L 72.359375 60.121094 L 74.878906 60.121094 C 76.074219 60.121094 77.039062 59.152344 77.039062 57.960938 L 77.039062 49.679688 C 77.039062 48.488281 76.074219 47.519531 74.878906 47.519531 L 66.601562 47.519531 C 65.40625 47.519531 64.441406 48.488281 64.441406 49.679688 L 64.441406 52.558594 L 59.761719 52.558594 L 59.761719 49.679688 C 59.761719 48.488281 58.792969 47.519531 57.601562 47.519531 L 49.320312 47.519531 C 48.128906 47.519531 47.160156 48.488281 47.160156 49.679688 L 47.160156 57.960938 C 47.160156 59.152344 48.128906 60.121094 49.320312 60.121094 L 51.839844 60.121094 L 51.839844 66.238281 Z M 54.71875 66.238281 L 57.601562 66.238281 C 58.792969 66.238281 59.761719 67.207031 59.761719 68.398438 L 59.761719 70.921875 L 64.441406 70.921875 L 64.441406 68.398438 C 64.441406 67.207031 65.40625 66.238281 66.601562 66.238281 L 69.480469 66.238281 L 69.480469 60.121094 L 66.601562 60.121094 C 65.40625 60.121094 64.441406 59.152344 64.441406 57.960938 L 64.441406 55.441406 L 59.761719 55.441406 L 59.761719 57.960938 C 59.761719 59.152344 58.792969 60.121094 57.601562 60.121094 L 54.71875 60.121094 Z M 54.71875 66.238281 "/>
</g>
</svg>
