<svg width="400" height="400" viewBox="0 0 400 400" fill="none" xmlns="http://www.w3.org/2000/svg">
<path fill-rule="evenodd" clip-rule="evenodd" d="M44.8 92.7998C44.8 83.9633 51.9635 76.7998 60.8 76.7998L339.2 76.7998C348.037 76.7998 355.2 83.9633 355.2 92.7998L355.2 307.2C355.2 316.036 348.037 323.2 339.2 323.2L60.8 323.2C51.9635 323.2 44.8 316.036 44.8 307.2L44.8 92.7998ZM67.2 99.1998L67.2 300.8L332.8 300.8L332.8 99.1998L67.2 99.1998Z" fill="#0085FF"/>
<path fill-rule="evenodd" clip-rule="evenodd" d="M302.4 247.396C302.4 252.807 297.939 257.193 292.436 257.193L205.208 257.193C199.705 257.193 195.244 252.807 195.244 247.396C195.244 241.986 199.705 237.6 205.208 237.6L292.436 237.6C297.939 237.6 302.4 241.986 302.4 247.396Z" fill="#0085FF"/>
<path d="M136.064 265.309V134.4H144.45V265.309H136.064ZM164.291 173.672C163.677 168.491 161.189 164.468 156.825 161.604C152.462 158.741 147.109 157.309 140.768 157.309C136.132 157.309 132.075 158.059 128.598 159.559C125.155 161.059 122.462 163.121 120.518 165.746C118.609 168.371 117.655 171.354 117.655 174.695C117.655 177.491 118.32 179.894 119.649 181.905C121.013 183.883 122.751 185.536 124.865 186.866C126.979 188.161 129.195 189.235 131.513 190.087C133.831 190.905 135.962 191.57 137.905 192.082L148.541 194.945C151.268 195.661 154.302 196.65 157.643 197.911C161.018 199.172 164.24 200.894 167.308 203.076C170.41 205.224 172.967 207.985 174.979 211.36C176.99 214.735 177.996 218.877 177.996 223.786C177.996 229.445 176.513 234.559 173.547 239.127C170.615 243.695 166.32 247.326 160.66 250.019C155.035 252.712 148.2 254.059 140.155 254.059C132.655 254.059 126.16 252.849 120.672 250.428C115.217 248.008 110.922 244.633 107.785 240.303C104.683 235.974 102.927 230.945 102.518 225.218H115.609C115.95 229.172 117.28 232.445 119.598 235.036C121.95 237.593 124.916 239.502 128.496 240.763C132.109 241.991 135.996 242.604 140.155 242.604C144.996 242.604 149.342 241.82 153.195 240.252C157.047 238.65 160.098 236.434 162.348 233.604C164.598 230.741 165.723 227.4 165.723 223.582C165.723 220.104 164.751 217.275 162.808 215.093C160.865 212.911 158.308 211.138 155.138 209.775C151.967 208.411 148.541 207.218 144.859 206.195L131.973 202.513C123.791 200.161 117.314 196.803 112.541 192.439C107.768 188.076 105.382 182.366 105.382 175.309C105.382 169.445 106.967 164.332 110.138 159.968C113.342 155.57 117.638 152.161 123.024 149.741C128.445 147.286 134.496 146.059 141.177 146.059C147.927 146.059 153.927 147.269 159.177 149.689C164.427 152.076 168.587 155.349 171.655 159.508C174.757 163.667 176.393 168.388 176.564 173.672H164.291Z" fill="#0085FF"/>
<path fill-rule="evenodd" clip-rule="evenodd" d="M132.864 132.8C132.864 131.916 133.58 131.2 134.464 131.2H146.05C146.934 131.2 147.65 131.916 147.65 132.8V141.815C147.65 142.625 148.256 143.304 149.057 143.424C153.144 144.035 156.967 145.148 160.51 146.78C166.191 149.364 170.799 152.96 174.225 157.602C177.723 162.294 179.571 167.647 179.762 173.569L179.815 175.221C179.845 176.124 179.12 176.872 178.216 176.872H162.869C162.059 176.872 161.376 176.266 161.281 175.461L161.113 174.049C160.611 169.806 158.643 166.625 155.07 164.28C153.43 163.204 151.605 162.347 149.579 161.723C148.6 161.422 147.65 162.185 147.65 163.209V190.165C147.65 190.889 148.136 191.522 148.834 191.71L149.354 191.85C149.357 191.851 149.361 191.852 149.364 191.853C152.219 192.603 155.356 193.627 158.769 194.916C162.408 196.276 165.868 198.127 169.146 200.456C172.633 202.874 175.495 205.976 177.727 209.722C180.099 213.702 181.196 218.443 181.196 223.786C181.196 230.035 179.549 235.756 176.236 240.862C172.935 246.002 168.148 249.999 162.039 252.907C158.168 254.76 153.834 256.002 149.066 256.67C148.261 256.783 147.65 257.464 147.65 258.277V266.909C147.65 267.792 146.934 268.509 146.05 268.509H134.464C133.58 268.509 132.864 267.792 132.864 266.909V258.291C132.864 257.477 132.253 256.795 131.447 256.683C127.074 256.073 123.045 254.972 119.381 253.356L119.374 253.353C113.465 250.731 108.699 247.019 105.194 242.18L105.184 242.167C101.711 237.32 99.7743 231.715 99.3265 225.446L99.2041 223.732C99.1379 222.806 99.8715 222.018 100.8 222.018H117.077C117.908 222.018 118.6 222.653 118.671 223.48L118.797 224.943C119.087 228.3 120.185 230.885 121.968 232.886C123.928 235.011 126.425 236.638 129.542 237.739C130.002 237.895 130.469 238.041 130.941 238.175C131.922 238.454 132.864 237.693 132.864 236.673V207.303C132.864 206.588 132.39 205.961 131.703 205.764L131.089 205.589C122.577 203.142 115.615 199.586 110.382 194.801C104.881 189.772 102.182 183.172 102.182 175.309C102.182 168.831 103.946 163.045 107.549 158.087L107.551 158.083C111.111 153.199 115.861 149.452 121.708 146.824C124.808 145.42 128.082 144.395 131.521 143.739C132.293 143.592 132.864 142.925 132.864 142.14V132.8ZM132.864 151.925C132.864 150.924 131.953 150.167 130.979 150.398C128.651 150.952 126.441 151.706 124.344 152.656L124.336 152.659C119.413 154.871 115.575 157.941 112.726 161.85C109.988 165.619 108.582 170.06 108.582 175.309C108.582 181.559 110.655 186.38 114.7 190.078C119.011 194.019 125.003 197.179 132.852 199.436V199.436L132.857 199.438C132.861 199.439 132.864 199.436 132.864 199.433V195.087C132.864 194.394 132.417 193.781 131.761 193.559C131.329 193.413 130.891 193.261 130.448 193.105L130.428 193.098L130.409 193.091C127.892 192.165 125.486 190.999 123.193 189.594L123.177 189.584L123.161 189.574C120.695 188.023 118.635 186.071 117.015 183.722L116.997 183.696L116.98 183.67C115.252 181.056 114.455 178.016 114.455 174.695C114.455 170.699 115.611 167.053 117.93 163.864L117.938 163.853L117.946 163.842C120.271 160.703 123.441 158.315 127.32 156.625L127.33 156.621C128.69 156.034 130.114 155.554 131.6 155.177C132.333 154.99 132.864 154.342 132.864 153.585V151.925ZM140.768 154.109C139.946 154.109 139.264 153.452 139.264 152.629V150.835C139.264 149.975 139.943 149.266 140.803 149.26C140.928 149.259 141.052 149.259 141.177 149.259C141.218 149.259 141.25 149.291 141.25 149.332V153.63C141.25 153.895 141.034 154.109 140.768 154.109ZM132.864 163.547C132.864 162.495 131.863 161.727 130.877 162.092C130.534 162.219 130.199 162.353 129.871 162.495C126.871 163.802 124.659 165.535 123.098 167.639C121.605 169.698 120.855 172.014 120.855 174.695C120.855 176.952 121.381 178.711 122.302 180.115C123.403 181.705 124.809 183.047 126.553 184.147C128.477 185.325 130.491 186.301 132.598 187.077C132.728 187.123 132.864 187.026 132.864 186.888V163.547ZM139.999 189.331C139.565 189.215 139.264 188.821 139.264 188.372V162.043C139.264 161.202 139.928 160.509 140.768 160.509C141.035 160.509 141.25 160.727 141.25 160.994V188.372C141.25 189.026 140.63 189.501 139.999 189.331ZM139.264 197.057C139.264 196.404 139.884 195.928 140.515 196.098C140.949 196.215 141.25 196.608 141.25 197.057V200.519C141.25 201.179 140.619 201.656 139.984 201.474C139.558 201.352 139.264 200.963 139.264 200.519V197.057ZM140.53 208.286C139.895 208.105 139.264 208.581 139.264 209.241V238.503C139.264 238.998 139.659 239.404 140.155 239.404C140.765 239.404 141.25 238.904 141.25 238.294V209.241C141.25 208.798 140.956 208.408 140.53 208.286ZM149.737 211.09C148.712 210.724 147.65 211.495 147.65 212.582V236.638C147.65 237.661 148.599 238.424 149.58 238.132C150.406 237.887 151.205 237.607 151.977 237.293C155.398 235.868 157.976 233.958 159.838 231.619C161.618 229.35 162.523 226.716 162.523 223.582C162.523 220.732 161.744 218.709 160.419 217.221C158.838 215.447 156.691 213.926 153.873 212.714C152.545 212.143 151.167 211.602 149.737 211.09ZM141.25 246.887C141.25 246.286 140.756 245.804 140.155 245.804C139.666 245.804 139.264 246.197 139.264 246.686V249.962C139.264 250.456 139.661 250.859 140.155 250.859C140.763 250.859 141.25 250.362 141.25 249.754V246.887ZM149.451 250.136C148.499 250.296 147.65 249.548 147.65 248.583V246.495C147.65 245.721 148.204 245.062 148.96 244.896C150.849 244.482 152.664 243.923 154.401 243.216L154.412 243.211L154.423 243.207C158.698 241.429 162.217 238.911 164.853 235.596L164.864 235.581C167.58 232.125 168.923 228.079 168.923 223.582C168.923 219.477 167.759 215.84 165.198 212.965C162.892 210.376 159.925 208.35 156.402 206.835C153.994 205.799 151.455 204.862 148.787 204.021C148.114 203.809 147.65 203.188 147.65 202.482V198.08C147.65 198.05 147.679 198.027 147.709 198.035L147.729 198.04C150.324 198.722 153.25 199.673 156.513 200.905L156.523 200.909C159.626 202.068 162.602 203.656 165.454 205.684L165.47 205.695L165.487 205.707C168.197 207.583 170.443 210 172.23 212.998C173.881 215.768 174.796 219.311 174.796 223.786C174.796 228.852 173.478 233.356 170.863 237.384L170.854 237.399C168.292 241.391 164.49 244.652 159.285 247.13L159.279 247.133C156.407 248.508 153.138 249.517 149.451 250.136ZM141.25 258.346C141.25 257.744 140.757 257.259 140.155 257.259C139.665 257.259 139.264 257.654 139.264 258.144V261.116C139.264 261.664 139.709 262.109 140.257 262.109C140.806 262.109 141.25 261.664 141.25 261.116V258.346ZM131.065 250.15C132.016 250.309 132.864 249.562 132.864 248.597V246.517C132.864 245.742 132.307 245.082 131.549 244.919C130.159 244.621 128.798 244.246 127.467 243.793L127.449 243.788L127.432 243.781C123.406 242.363 119.982 240.179 117.243 237.203L117.228 237.186L117.213 237.17C115.281 235.01 113.943 232.492 113.161 229.675C112.959 228.948 112.314 228.418 111.559 228.418H108.08C107.077 228.418 106.319 229.331 106.574 230.301C107.361 233.29 108.635 235.993 110.382 238.433C113.149 242.249 116.97 245.284 121.964 247.501C124.684 248.7 127.713 249.589 131.065 250.15ZM147.65 153.349C147.65 154.125 148.207 154.784 148.965 154.951C152.484 155.724 155.7 157.039 158.581 158.929C162.549 161.533 165.246 165.016 166.608 169.275C166.831 169.973 167.463 170.472 168.196 170.472H171.121C172.116 170.472 172.874 169.572 172.615 168.612C171.917 166.027 170.743 163.638 169.09 161.421L169.08 161.407C166.371 157.736 162.665 154.79 157.853 152.603L157.838 152.596C155.272 151.413 152.484 150.536 149.463 149.979C148.509 149.803 147.65 150.553 147.65 151.524V153.349ZM141.25 142.786C141.25 142.826 141.218 142.859 141.177 142.859C141.091 142.859 141.005 142.859 140.919 142.859C140.014 142.863 139.264 142.141 139.264 141.236V138.593C139.264 138.044 139.709 137.6 140.257 137.6C140.806 137.6 141.25 138.044 141.25 138.593V142.786Z" fill="#0085FF"/>
</svg>
